<svg class="menu__logo txtVerde" xmlns="http://www.w3.org/2000/svg" xmlns:xlink="http://www.w3.org/1999/xlink" viewBox="0 0 434.84 152.87">
  <title>CNX Seguros</title>
  <g id="Camada_2" data-name="Camada 2">
    <g id="Camada_1-2" data-name="Camada 1">
      <g class="cls-2">
        <path class="cls-3" d="M76.44,0h0a76.44,76.44,0,1,0,76.43,76.44A76.44,76.44,0,0,0,76.44,0M37.36,49.45a23,23,0,0,1,45.91,0V89H69.48V49.45a9.17,9.17,0,0,0-18.33,0v6.9H37.36ZM119,83.82a42.56,42.56,0,1,1-85.11,0V82.28H47.72v1.54a28.72,28.72,0,1,0,57.44,0V82.28H119Zm-7-27.45a7,7,0,1,1,7-7,7,7,0,0,1-7,7"></path>
        <path class="cls-3" d="M309.25,39.45c-22.1,0-35.82,13.92-35.82,36.31v37.66h15V75.76c0-13.68,7.58-21.52,20.79-21.52S330,62.08,330,75.76v37.66h15V75.76c0-22.39-13.73-36.31-35.82-36.31"></path>
        <path class="cls-3" d="M187,76.44c0,22.09,13.91,35.82,36.31,35.82h32v-15h-32c-13.68,0-21.53-7.58-21.53-20.79s7.85-20.79,21.53-20.79h32v-15h-32c-22.4,0-36.31,13.72-36.31,35.82"></path>
        <polygon class="cls-3" points="434.84 50.49 424.96 40.62 399.02 66.56 373.08 40.62 363.2 50.49 389.14 76.44 363.2 102.38 373.08 112.26 399.02 86.31 424.96 112.26 434.84 102.38 408.9 76.44 434.84 50.49"></polygon>
      </g>
    </g>
  </g>
</svg>